<?xml version="1.0" encoding="UTF-8" standalone="no"?>
<!DOCTYPE svg PUBLIC "-//W3C//DTD SVG 1.1//EN" "http://www.w3.org/Graphics/SVG/1.1/DTD/svg11.dtd">
<svg width="100%" height="100%" viewBox="0 0 305 63" version="1.1" xmlns="http://www.w3.org/2000/svg" xmlns:xlink="http://www.w3.org/1999/xlink" xml:space="preserve" xmlns:serif="http://www.serif.com/" style="fill-rule:evenodd;clip-rule:evenodd;stroke-linejoin:round;stroke-miterlimit:2;"><g id="Logo"><path d="M62.5,20.025c-3.465,3.489 -6.794,7.185 -9.424,10.483c-4.511,5.656 -11.026,15.303 -15.739,23.305c-0.343,0.581 -0.636,1.054 -0.655,1.055c-0.027,0.001 -10.068,-9.974 -16.987,-16.875l-2.076,-2.071l2.366,-2.26c1.302,-1.242 2.381,-2.264 2.397,-2.27c0.016,-0.005 2.642,2.189 5.841,4.88c5.707,4.803 5.813,4.888 5.885,4.781c0.253,-0.374 1.806,-2.483 2.351,-3.194c4.468,-5.821 8.946,-10.692 13.544,-14.729c3.477,-3.054 8.021,-6.507 12.497,-9.5l0,-7.38c0,-3.449 -2.801,-6.25 -6.25,-6.25l-50,0c-3.449,0 -6.25,2.801 -6.25,6.25l0,50c0,3.449 2.801,6.25 6.25,6.25l50,0c3.449,0 6.25,-2.801 6.25,-6.25l0,-36.225Z" style="fill:#377dff;"/><path d="M98.491,45.944c6.778,-0 11.644,-3.43 13.528,-9.616l-6.919,-1.547c-1.04,3.122 -3.009,4.81 -6.609,4.81c-5.091,-0 -7.678,-3.882 -7.706,-9.677c0.028,-5.57 2.39,-9.677 7.706,-9.677c3.094,0 5.737,1.913 6.778,5.176l6.75,-1.828c-1.434,-5.99 -6.553,-9.7 -13.444,-9.7c-9.224,-0 -14.931,6.718 -14.959,16.029c0.028,9.17 5.482,16.03 14.875,16.03Z" style="fill:#c1c4cb;fill-rule:nonzero;"/><path d="M130.246,45.944c9.085,-0 15.157,-6.55 15.157,-16.03c0,-9.395 -5.987,-16.029 -15.157,-16.029c-8.973,-0 -15.102,6.493 -15.102,16.029c0,9.396 5.96,16.03 15.102,16.03Zm-0,-6.353c-5.233,-0 -7.933,-3.77 -7.933,-9.677c-0,-5.739 2.475,-9.677 7.933,-9.677c5.316,0 7.989,3.798 7.989,9.677c0,5.71 -2.616,9.677 -7.989,9.677Z" style="fill:#c1c4cb;fill-rule:nonzero;"/><path d="M184.443,13.969c-3.938,-0 -7.371,1.827 -9.254,4.835c-1.603,-2.952 -4.582,-4.835 -8.858,-4.835c-3.657,-0 -6.808,1.546 -8.806,4.048l0,-3.289l-5.987,0l0,30.372l6.831,-0l0,-18.701c0,-3.799 2.251,-6.387 5.711,-6.387c3.545,0 5.768,2.503 5.768,6.722l-0,18.366l6.746,-0l0,-18.703c0,-4.022 2.476,-6.385 5.739,-6.385c3.489,0 5.74,2.475 5.74,6.638l-0,18.45l6.774,-0l0,-20.166c0,-6.58 -3.682,-10.965 -10.404,-10.965Z" style="fill:#c1c4cb;fill-rule:nonzero;"/><path d="M216.505,13.885c-3.46,-0 -6.273,1.096 -8.411,3.035l0,-2.192l-5.987,0l-0,43.872l6.831,-0l-0,-15.046c2.053,1.518 4.67,2.39 7.82,2.39c8.411,-0 13.864,-6.916 13.864,-16.03c0,-9.227 -5.51,-16.029 -14.117,-16.029Zm-0.787,25.987c-5.458,0 -7.624,-4.079 -7.624,-9.958c0,-5.935 2.222,-9.958 7.399,-9.958c5.457,0 7.961,4.444 7.961,9.958c-0,5.57 -2.448,9.958 -7.736,9.958Z" style="fill:#c1c4cb;fill-rule:nonzero;"/><path d="M244.15,10.112l0,-6.212l-6.774,0l-0,6.212l6.774,0Zm0,34.988l0,-30.372l-6.774,0l-0,30.372l6.774,-0Z" style="fill:#c1c4cb;fill-rule:nonzero;"/><path d="M270.391,20.04l-0,-5.312l-8.916,0l0,-8.437l-6.746,-0l-0,8.437l-5.513,0l0,5.312l5.513,0l-0,12.659c-0,3.488 -0.253,6.048 1.152,8.663c2.362,4.357 8.491,4.891 14.51,3.738l-0,-5.678c-3.797,0.562 -6.947,0.591 -8.297,-1.66c-0.731,-1.153 -0.619,-3.038 -0.619,-5.457l0,-12.265l8.916,0Z" style="fill:#c1c4cb;fill-rule:nonzero;"/><path d="M297.451,30.338c-0,7.368 -3.658,9.253 -7.118,9.253c-6.47,-0 -7.089,-6.497 -7.089,-10.238l0,-14.625l-6.859,0l0,16.96c0,3.6 0.759,14.284 11.951,14.284c4.388,-0 7.708,-1.631 9.93,-4.245l0,3.373l5.987,-0l0,-30.372l-6.802,0l-0,15.61Z" style="fill:#c1c4cb;fill-rule:nonzero;"/></g></svg>